HIERARCHY
ROOT Model_Hips
{
	OFFSET 0.000000 96.915077 0.000000
	CHANNELS 6 Xposition Yposition Zposition Xrotation Yrotation Zrotation
	JOINT Model_Spine
	{
		OFFSET 0.000000 11.137703 -1.289900
		CHANNELS 3 Xrotation Yrotation Zrotation
		JOINT Model_Spine1
		{
			OFFSET 0.000000 12.993942 -1.504922
			CHANNELS 3 Xrotation Yrotation Zrotation
			JOINT Model_Spine2
			{
				OFFSET 0.000000 14.850220 -1.719911
				CHANNELS 3 Xrotation Yrotation Zrotation
				JOINT Model_Neck
				{
					OFFSET 0.000000 16.706543 -1.934903
					CHANNELS 3 Xrotation Yrotation Zrotation
					JOINT Model_Head
					{
						OFFSET 0.000000 10.471298 2.002100
						CHANNELS 3 Xrotation Yrotation Zrotation
						JOINT Model_HeadTop_End
						{
							OFFSET 0.000000 20.842606 3.985100
							CHANNELS 3 Xrotation Yrotation Zrotation
							End Site
							{
								OFFSET 0.000000 21.220154 0.000000
							}
						}
					}
				}
				JOINT Model_LeftShoulder
				{
					OFFSET 7.008500 14.768600 -1.919946
					CHANNELS 3 Xrotation Yrotation Zrotation
					JOINT Model_LeftArm
					{
						OFFSET 14.126271 -3.718048 0.029937
						CHANNELS 3 Xrotation Yrotation Zrotation
						JOINT Model_LeftForeArm
						{
							OFFSET 28.282801 0.000000 0.000000
							CHANNELS 3 Xrotation Yrotation Zrotation
							JOINT Model_LeftHand
							{
								OFFSET 26.204689 0.000000 0.000000
								CHANNELS 3 Xrotation Yrotation Zrotation
								End Site
								{
									OFFSET 26.204704 0.000000 0.000000
								}
							}
						}
					}
				}
				JOINT Model_RightShoulder
				{
					OFFSET -7.008500 14.768555 -1.949840
					CHANNELS 3 Xrotation Yrotation Zrotation
					JOINT Model_RightArm
					{
						OFFSET -14.126281 -3.718018 -0.029932
						CHANNELS 3 Xrotation Yrotation Zrotation
						JOINT Model_RightForeArm
						{
							OFFSET -28.283798 0.000000 -0.000001
							CHANNELS 3 Xrotation Yrotation Zrotation
							JOINT Model_RightHand
							{
								OFFSET -26.204193 0.000000 -0.000001
								CHANNELS 3 Xrotation Yrotation Zrotation
								End Site
								{
									OFFSET -26.204208 0.000000 -0.000001
								}
							}
						}
					}
				}
			}
		}
	}
	JOINT Model_LeftUpLeg
	{
		OFFSET 8.327700 -6.193199 -0.402800
		CHANNELS 3 Xrotation Yrotation Zrotation
		JOINT Model_LeftLeg
		{
			OFFSET 0.735802 -42.108742 -0.610721
			CHANNELS 3 Xrotation Yrotation Zrotation
			JOINT Model_LeftFoot
			{
				OFFSET -0.735806 -36.833748 -0.172876
				CHANNELS 3 Xrotation Yrotation Zrotation
				JOINT Model_LeftToeBase
				{
					OFFSET -0.565857 -11.977769 16.297714
					CHANNELS 3 Xrotation Yrotation Zrotation
					JOINT Model_LeftToe_End
					{
						OFFSET -0.111712 -0.312793 7.857784
						CHANNELS 3 Xrotation Yrotation Zrotation
						End Site
						{
							OFFSET -0.111712 -0.312793 7.857784
						}
					}
				}
			}
		}
	}
	JOINT Model_RightUpLeg
	{
		OFFSET -8.327700 -6.193199 -0.516500
		CHANNELS 3 Xrotation Yrotation Zrotation
		JOINT Model_RightLeg
		{
			OFFSET -0.735785 -42.108738 -0.434061
			CHANNELS 3 Xrotation Yrotation Zrotation
			JOINT Model_RightFoot
			{
				OFFSET 0.735776 -36.833748 -0.021630
				CHANNELS 3 Xrotation Yrotation Zrotation
				JOINT Model_RightToeBase
				{
					OFFSET 0.565817 -11.977745 15.903093
					CHANNELS 3 Xrotation Yrotation Zrotation
					JOINT Model_RightToe_End
					{
						OFFSET 0.111702 -0.312791 7.811342
						CHANNELS 3 Xrotation Yrotation Zrotation
						End Site
						{
							OFFSET 0.111702 -0.312791 7.811342
						}
					}
				}
			}
		}
	}
}
MOTION
Frames: 13
Frame Time: 0.016667
3.504570 96.049538 26.380928 170.241003 -72.587576 171.347221 -0.572265 -2.660704 -0.345269 -1.137034 -5.439366 -0.313068 -1.137037 -5.439374 -0.313069 -0.115728 -2.898018 -0.059215 -0.115728 -2.898033 -0.059215 -0.000000 0.000001 0.000000 0.497272 -16.654735 -16.247751 -6.478823 5.041605 -49.984506 17.915465 -25.811406 -8.626710 -0.000004 0.000000 -0.000002 1.778441 7.104281 14.149341 2.202007 -22.746302 49.961246 10.857870 32.619658 9.121376 0.000003 -0.000001 -0.000001 -14.420597 12.456104 8.775603 41.122315 6.487020 -0.515413 -8.462919 1.522841 -10.770406 -19.788113 1.742980 0.108315 -0.000000 -0.000001 -0.000000 -31.798974 -7.152538 -7.096695 31.669470 -18.498459 -7.860377 -5.842293 -0.133661 -1.057279 -6.303565 -3.411220 2.921463 0.000000 -0.000002 -0.000001 
3.315524 95.887283 26.337132 171.213841 -70.147197 172.483136 -0.624182 -2.976872 -0.289613 -1.232297 -6.080230 -0.140106 -1.232298 -6.080230 -0.140105 0.005750 -2.562299 -0.007031 0.005749 -2.562306 -0.007030 0.000000 0.000000 0.000000 0.505410 -16.492028 -16.261014 -7.344901 3.892782 -50.185747 17.912618 -27.126902 -8.636088 -0.000002 -0.000000 0.000000 1.785448 6.873310 14.136348 2.605598 -24.105705 48.740957 10.454686 32.309086 9.313666 0.000003 0.000001 0.000000 -13.458245 12.642554 8.631671 41.149988 5.976986 -0.782956 -9.282163 1.583121 -10.623765 -19.998370 1.593700 0.156460 0.000000 0.000000 -0.000000 -31.351822 -7.026297 -7.762857 28.761612 -19.992927 -8.822199 -5.150208 -0.146871 -1.192018 -6.209066 -3.296702 2.826035 0.000000 0.000001 0.000001 
3.117431 95.694458 26.194544 171.941256 -67.755060 173.382863 -0.664076 -3.230262 -0.253181 -1.302611 -6.594722 0.006155 -1.302607 -6.594707 0.006155 0.105322 -2.259537 0.050680 0.105321 -2.259495 0.050681 -0.000000 0.000001 -0.000000 0.520796 -16.266647 -16.257578 -8.321677 2.715370 -50.448020 18.015614 -28.384480 -8.532922 -0.000002 -0.000002 0.000001 1.774069 6.603311 14.345651 2.957875 -25.458045 47.347886 10.169183 31.724733 9.653322 -0.000000 -0.000001 0.000002 -12.512893 12.780195 8.447582 41.186826 6.172263 -1.139271 -10.084834 1.660810 -10.720705 -20.090016 1.504350 0.188815 0.000000 0.000000 0.000000 -30.786664 -6.895377 -8.394429 25.582803 -21.335793 -9.628004 -4.418669 -0.161344 -1.233394 -6.332779 -2.920445 2.501612 0.000002 -0.000002 -0.000001 
2.907819 95.484680 25.936134 172.411897 -65.340281 174.003604 -0.701114 -3.390729 -0.220937 -1.366613 -6.923117 0.151284 -1.366612 -6.923122 0.151284 0.185752 -1.998380 0.099472 0.185750 -1.998389 0.099474 -0.000000 -0.000001 0.000000 0.518516 -16.116386 -16.326732 -9.449218 1.446051 -50.685133 18.122392 -29.542453 -8.381022 -0.000000 0.000000 0.000001 1.749842 6.262004 14.748817 3.121815 -26.755033 45.873193 9.980664 30.731763 10.017575 -0.000002 -0.000001 -0.000000 -11.639570 12.820508 8.274233 41.263089 7.062277 -1.575637 -10.804576 1.760748 -11.116090 -20.146900 1.487501 0.199423 0.000000 -0.000000 -0.000000 -30.162365 -6.754058 -8.908359 22.260551 -22.493051 -10.190083 -3.673525 -0.168564 -1.315687 -6.644248 -2.515285 2.149840 0.000002 -0.000004 -0.000000 
2.687520 95.260254 25.547819 172.680843 -62.878025 174.374620 -0.735165 -3.453069 -0.180160 -1.424464 -7.055065 0.315633 -1.424468 -7.055068 0.315633 0.244550 -1.783179 0.127324 0.244552 -1.783194 0.127323 -0.000000 0.000003 0.000000 0.482254 -16.148773 -16.519555 -10.723381 0.106275 -50.816963 18.030014 -30.630479 -8.228477 -0.000000 -0.000001 0.000001 1.723223 5.869459 15.241195 3.043655 -27.943410 44.533233 9.826130 29.183455 10.293412 0.000005 0.000001 0.000000 -10.874594 12.741925 8.162532 41.454392 8.445043 -2.040363 -11.392816 1.883831 -11.807409 -20.283369 1.539629 0.191074 0.000000 0.000000 -0.000000 -29.525552 -6.591933 -9.238287 18.999582 -23.433616 -10.467157 -2.959345 -0.163740 -1.592854 -6.985077 -2.284644 1.947124 0.000001 0.000000 0.000000 
2.460017 95.020317 25.018038 172.852280 -60.392697 174.585236 -0.756543 -3.449673 -0.129754 -1.456796 -7.053968 0.503619 -1.456795 -7.053979 0.503618 0.274129 -1.614869 0.137711 0.274119 -1.614864 0.137710 0.000000 0.000002 -0.000000 0.418200 -16.359555 -16.796161 -12.086175 -1.204462 -50.825978 17.568534 -31.724880 -8.076979 -0.000001 0.000000 -0.000003 1.701824 5.497642 15.704606 2.777468 -28.971835 43.593119 9.608410 27.024723 10.410113 0.000001 -0.000001 0.000001 -10.215683 12.571808 8.156468 41.823277 10.034914 -2.471509 -11.802268 2.024399 -12.756032 -20.612095 1.655572 0.171471 0.000000 0.000000 -0.000000 -29.255094 -6.288711 -9.567269 16.710546 -24.159622 -10.535505 -1.770160 -0.171921 -0.701758 -7.197957 -2.309320 1.961384 -0.000001 0.000000 -0.000001 
2.228652 94.782242 24.331848 173.009320 -57.933904 174.698426 -0.756599 -3.430650 -0.059113 -1.447826 -7.027288 0.704771 -1.447826 -7.027285 0.704770 0.272423 -1.496925 0.148049 0.272422 -1.496917 0.148049 -0.000000 0.000003 -0.000000 0.352767 -16.640873 -17.044186 -13.447290 -2.370276 -50.769394 16.686932 -32.871703 -7.921009 -0.000000 -0.000004 -0.000002 1.686858 5.226642 16.060927 2.480653 -29.831862 43.255025 9.266277 24.383992 10.331130 0.000002 -0.000000 0.000001 -9.618547 12.361951 8.306972 42.332867 11.598313 -2.833326 -11.940250 2.165929 -13.919462 -21.226792 1.824105 0.147368 0.000000 0.000000 -0.000000 -29.278070 -5.950266 -9.548767 15.704352 -24.983816 -10.529749 -0.879762 -0.171787 0.498199 -7.235632 -2.546420 2.155924 0.000001 0.000002 0.000001 
1.994227 94.562912 23.498545 173.174337 -55.567421 174.753368 -0.739979 -3.442792 0.019451 -1.405818 -7.066850 0.904134 -1.405817 -7.066838 0.904133 0.250791 -1.439698 0.174402 0.250792 -1.439718 0.174401 -0.000000 0.000002 0.000000 0.314035 -16.872526 -17.159339 -14.708153 -3.324397 -50.723034 15.481435 -34.052195 -7.784791 -0.000001 -0.000001 -0.000000 1.676665 5.089863 16.285596 2.362284 -30.579269 43.571737 8.833058 21.560602 10.056112 0.000003 -0.000000 -0.000002 -9.056374 12.161499 8.616191 42.929061 12.999825 -3.120656 -11.710907 2.284591 -15.251196 -22.199370 2.017416 0.121558 0.000000 0.000000 -0.000000 -29.275174 -5.665105 -9.348363 15.130438 -26.048240 -10.486359 -0.114103 -0.155917 1.607808 -7.188212 -2.858223 2.414785 0.000001 0.000001 0.000001 
1.757513 94.382812 22.511091 173.318919 -53.354699 174.748027 -0.722722 -3.502651 0.101739 -1.362723 -7.205390 1.090668 -1.362726 -7.205423 1.090668 0.227821 -1.416250 0.216617 0.227817 -1.416248 0.216617 0.000000 -0.000002 0.000000 0.310392 -17.009249 -17.120824 -15.779031 -4.068120 -50.707536 14.178655 -35.213703 -7.697175 -0.000002 -0.000003 -0.000002 1.670429 5.045835 16.398975 2.587034 -31.296111 44.414138 8.417791 18.896007 9.654816 -0.000000 0.000000 0.000000 -8.512569 11.984741 9.076550 43.516774 14.180822 -3.327859 -11.003634 2.350026 -16.734430 -23.585301 2.196391 0.094643 0.000000 0.000000 -0.000000 -29.131382 -5.524881 -8.891902 14.741259 -27.564125 -10.562818 0.872488 -0.135180 2.698547 -7.204389 -3.096560 2.610589 -0.000000 0.000001 0.000001 
1.521430 94.249702 21.359545 173.395444 -51.334722 174.672020 -0.724076 -3.599898 0.183762 -1.357434 -7.421310 1.255936 -1.357435 -7.421303 1.255935 0.214824 -1.393772 0.259155 0.214818 -1.393755 0.259152 -0.000000 0.000000 -0.000000 0.329227 -17.079694 -16.988579 -16.591023 -4.634136 -50.678009 13.061366 -36.313411 -7.644612 -0.000002 -0.000002 -0.000000 1.667664 5.006334 16.462950 3.193491 -32.031805 45.511555 8.140637 16.630662 9.269152 0.000004 0.000000 0.000001 -7.998333 11.834262 9.672424 44.023715 15.076080 -3.444036 -9.748173 2.327364 -18.343134 -25.425442 2.346627 0.068218 -0.000000 0.000000 -0.000000 -28.889197 -5.551024 -8.168195 14.566562 -29.627882 -10.827061 1.923358 -0.105570 3.832082 -7.350393 -3.210706 2.698084 0.000002 0.000000 0.000000 
1.289245 94.153267 20.046844 173.368233 -49.502366 174.528477 -0.756590 -3.714990 0.258663 -1.415824 -7.674834 1.388545 -1.415821 -7.674849 1.388544 0.207130 -1.374512 0.287595 0.207129 -1.374523 0.287597 -0.000000 0.000001 -0.000000 0.355002 -17.115365 -16.833887 -17.096575 -5.030970 -50.579047 12.352333 -37.339189 -7.563341 -0.000000 -0.000001 -0.000001 1.665286 4.898467 16.573895 4.092323 -32.783450 46.558200 8.089193 14.850831 9.053459 -0.000002 0.000000 -0.000000 -7.546520 11.726210 10.386876 44.428663 15.583030 -3.471668 -7.948698 2.184112 -20.014628 -27.740928 2.511551 0.049227 0.000000 0.000000 -0.000000 -28.549093 -5.723131 -7.282656 14.417778 -31.828798 -11.171013 3.069188 -0.078767 4.928498 -7.559760 -3.264918 2.732881 0.000001 0.000000 0.000000 
1.068864 94.063148 18.574415 173.233910 -47.797917 174.341890 -0.822706 -3.830939 0.318159 -1.543857 -7.932049 1.473351 -1.543855 -7.932045 1.473352 0.187851 -1.355583 0.300100 0.187852 -1.355594 0.300098 0.000000 0.000000 -0.000000 0.382646 -17.100943 -16.689509 -17.266855 -5.221306 -50.401062 12.120878 -38.296157 -7.379201 -0.000001 -0.000003 0.000001 1.659010 4.703160 16.816035 5.148199 -33.526520 47.337862 8.304939 13.543064 9.097774 0.000001 -0.000000 -0.000000 -7.194943 11.675267 11.217450 44.777498 15.627336 -3.433471 -5.649625 1.896994 -21.709263 -30.553017 2.797867 0.047214 0.000000 0.000000 -0.000000 -28.259780 -5.971838 -6.389575 14.547637 -33.435466 -11.289006 4.143652 -0.054481 5.864833 -7.740057 -3.338163 2.784002 0.000001 0.000000 0.000000 
0.871167 93.963036 16.971329 173.033622 -46.123851 174.160562 -0.906328 -3.931302 0.361732 -1.710098 -8.158891 1.509362 -1.710098 -8.158900 1.509361 0.134853 -1.332029 0.300358 0.134853 -1.332040 0.300357 -0.000000 0.000003 0.000000 0.413753 -16.995891 -16.561390 -17.104344 -5.154206 -50.188442 12.267905 -39.168451 -7.065673 -0.000001 -0.000001 0.000000 1.648222 4.443365 17.198652 6.270067 -34.255154 47.801031 8.775534 12.679407 9.383984 0.000001 -0.000001 -0.000002 -6.960585 11.668117 12.152419 45.117166 15.301299 -3.359239 -2.755268 1.421731 -23.466030 -33.981830 3.346005 0.051176 0.000000 0.000000 -0.000000 -28.203980 -6.262839 -5.527377 15.507151 -33.824196 -10.964918 4.719764 -0.043134 6.626299 -7.823597 -3.431263 2.854901 -0.000001 -0.000000 0.000000 
